<svg xmlns="http://www.w3.org/2000/svg" width="6479" height="1440" viewBox="0 0 6479 1440" role="img" aria-labelledby="title"><title id="title">EIT — Excellence in Teaching</title><g fill="#FFFFFF" transform="translate(0 1440) scale(1 -1)">
    <path d="M0 0V1440H940V1186H272V878H820L750 624H272V254H940V0Z"/>
    <path d="M1120 0V1440H1392V0Z"/>
    <path d="M1976 0V1186H1522V1440H2702V1186H2248V0Z"/>
  </g>
<path fill="#FFFFFF" d="M3215.4444444444443 600.0V256.0H3435.222222222222V303.0611111111111H3265.3722222222223V399.5722222222222H3406.5555555555557V446.6333333333333H3265.3722222222223V552.9388888888889H3435.222222222222V600.0Z M3499.888888888889 600.0 3617.1833333333334 425.85 3502.9944444444445 256.0H3564.15L3648.0 383.56666666666666L3731.3722222222223 256.0H3792.766666666667L3678.577777777778 425.85L3795.6333333333337 600.0H3734.477777777778L3648.0 468.3722222222222L3561.2833333333338 600.0Z M4013.4277777777784 607.1666666666666Q3961.827777777778 607.1666666666666 3925.516666666667 584.5916666666667Q3889.2055555555557 562.0166666666667 3869.9750000000004 521.6444444444444Q3850.744444444445 481.27222222222224 3850.744444444445 428.0Q3850.744444444445 374.72777777777776 3869.9750000000004 334.3555555555555Q3889.2055555555557 293.9833333333333 3925.516666666667 271.4083333333333Q3961.827777777778 248.83333333333331 4013.4277777777784 248.83333333333331Q4072.9111111111115 248.83333333333331 4111.969444444445 278.9333333333333Q4151.027777777778 309.0333333333333 4166.3166666666675 359.91666666666663L4115.672222222222 373.5333333333333Q4105.63888888889 337.4611111111111 4079.958333333334 316.91666666666663Q4054.2777777777783 296.3722222222222 4013.4277777777784 296.3722222222222Q3976.877777777778 296.3722222222222 3952.5111111111114 312.85555555555555Q3928.1444444444446 329.3388888888889 3915.841666666667 358.9611111111111Q3903.5388888888892 388.5833333333333 3903.5388888888892 428.0Q3903.3 467.41666666666663 3915.602777777778 497.0388888888889Q3927.905555555556 526.6611111111112 3952.3916666666673 543.1444444444444Q3976.877777777778 559.6277777777777 4013.4277777777784 559.6277777777777Q4054.2777777777783 559.6277777777777 4079.958333333334 538.9638888888888Q4105.63888888889 518.3 4115.672222222222 482.46666666666664L4166.3166666666675 496.0833333333333Q4151.027777777778 546.9666666666667 4111.969444444445 577.0666666666666Q4072.9111111111115 607.1666666666666 4013.4277777777784 607.1666666666666Z M4254.872222222222 600.0V256.0H4474.650000000001V303.0611111111111H4304.8V399.5722222222222H4445.983333333334V446.6333333333333H4304.8V552.9388888888889H4474.650000000001V600.0Z M4572.761111111112 600.0V256.0H4622.688888888889V552.9388888888889H4778.444444444445V600.0Z M4859.833333333334 600.0V256.0H4909.761111111111V552.9388888888889H5065.516666666666V600.0Z M5142.127777777778 600.0V256.0H5361.905555555556V303.0611111111111H5192.055555555556V399.5722222222222H5333.238888888889V446.6333333333333H5192.055555555556V552.9388888888889H5361.905555555556V600.0Z M5455.238888888889 600.0V256.0H5505.883333333333L5675.2555555555555 511.6111111111111V256.0H5725.900000000001V600.0H5675.2555555555555L5505.883333333333 344.15V600.0Z M5972.361111111111 607.1666666666666Q5920.761111111112 607.1666666666666 5884.450000000001 584.5916666666667Q5848.13888888889 562.0166666666667 5828.908333333334 521.6444444444444Q5809.677777777778 481.27222222222224 5809.677777777778 428.0Q5809.677777777778 374.72777777777776 5828.908333333334 334.3555555555555Q5848.13888888889 293.9833333333333 5884.450000000001 271.4083333333333Q5920.761111111112 248.83333333333331 5972.361111111111 248.83333333333331Q6031.844444444445 248.83333333333331 6070.902777777778 278.9333333333333Q6109.961111111112 309.0333333333333 6125.25 359.91666666666663L6074.605555555556 373.5333333333333Q6064.572222222223 337.4611111111111 6038.891666666667 316.91666666666663Q6013.211111111112 296.3722222222222 5972.361111111111 296.3722222222222Q5935.811111111111 296.3722222222222 5911.444444444445 312.85555555555555Q5887.0777777777785 329.3388888888889 5874.775000000001 358.9611111111111Q5862.472222222223 388.5833333333333 5862.472222222223 428.0Q5862.233333333334 467.41666666666663 5874.5361111111115 497.0388888888889Q5886.838888888889 526.6611111111112 5911.325000000001 543.1444444444444Q5935.811111111111 559.6277777777777 5972.361111111111 559.6277777777777Q6013.211111111112 559.6277777777777 6038.891666666667 538.9638888888888Q6064.572222222223 518.3 6074.605555555556 482.46666666666664L6125.25 496.0833333333333Q6109.961111111112 546.9666666666667 6070.902777777778 577.0666666666666Q6031.844444444445 607.1666666666666 5972.361111111111 607.1666666666666Z M6213.805555555556 600.0V256.0H6433.583333333334V303.0611111111111H6263.733333333334V399.5722222222222H6404.916666666667V446.6333333333333H6263.733333333334V552.9388888888889H6433.583333333334V600.0Z M3220.222222222222 1160.0V816.0H3270.15V1160.0Z M3377.8166666666666 1160.0V816.0H3428.461111111111L3597.8333333333335 1071.611111111111V816.0H3648.4777777777776V1160.0H3597.8333333333335L3428.461111111111 904.15V1160.0Z M3968.683333333334 1160.0V863.0611111111111H3854.255555555556V816.0H4133.038888888889V863.0611111111111H4018.6111111111113V1160.0Z M4207.261111111111 1160.0V816.0H4427.038888888889V863.0611111111111H4257.188888888889V959.5722222222222H4398.372222222222V1006.6333333333333H4257.188888888889V1112.9388888888889H4427.038888888889V1160.0Z M4496.483333333334 1160.0 4608.283333333334 816.0H4680.188888888889L4791.988888888889 1160.0H4740.150000000001L4637.188888888889 846.0999999999999H4650.088888888889L4548.322222222222 1160.0ZM4554.533333333334 1082.361111111111V1035.5388888888888H4734.177777777778V1082.361111111111Z M5014.561111111111 1167.1666666666667Q4962.961111111112 1167.1666666666667 4926.650000000001 1144.5916666666667Q4890.338888888889 1122.0166666666667 4871.108333333334 1081.6444444444444Q4851.877777777778 1041.2722222222221 4851.877777777778 988.0Q4851.877777777778 934.7277777777778 4871.108333333334 894.3555555555556Q4890.338888888889 853.9833333333333 4926.650000000001 831.4083333333333Q4962.961111111112 808.8333333333333 5014.561111111111 808.8333333333333Q5074.044444444445 808.8333333333333 5113.102777777778 838.9333333333333Q5152.1611111111115 869.0333333333333 5167.450000000001 919.9166666666666L5116.805555555556 933.5333333333333Q5106.772222222223 897.4611111111111 5081.091666666667 876.9166666666667Q5055.4111111111115 856.3722222222223 5014.561111111111 856.3722222222223Q4978.011111111111 856.3722222222223 4953.644444444444 872.8555555555556Q4929.277777777778 889.338888888889 4916.975 918.9611111111111Q4904.672222222222 948.5833333333333 4904.672222222222 988.0Q4904.433333333333 1027.4166666666667 4916.736111111111 1057.0388888888888Q4929.038888888889 1086.661111111111 4953.525 1103.1444444444444Q4978.011111111111 1119.6277777777777 5014.561111111111 1119.6277777777777Q5055.4111111111115 1119.6277777777777 5081.091666666667 1098.963888888889Q5106.772222222223 1078.3 5116.805555555556 1042.4666666666667L5167.450000000001 1056.0833333333333Q5152.1611111111115 1106.9666666666667 5113.102777777778 1137.0666666666666Q5074.044444444445 1167.1666666666667 5014.561111111111 1167.1666666666667Z M5256.0055555555555 1160.0V816.0H5305.933333333333V964.35H5477.933333333333V816.0H5528.1V1160.0H5477.933333333333V1011.411111111111H5305.933333333333V1160.0Z M5635.766666666667 1160.0V816.0H5685.694444444444V1160.0Z M5793.361111111111 1160.0V816.0H5844.0055555555555L6013.377777777778 1071.611111111111V816.0H6064.022222222223V1160.0H6013.377777777778L5844.0055555555555 904.15V1160.0Z M6307.616666666667 1167.1666666666667Q6272.977777777778 1167.1666666666667 6243.833333333334 1155.1027777777776Q6214.68888888889 1143.0388888888888 6193.18888888889 1119.8666666666666Q6171.68888888889 1096.6944444444443 6159.7444444444445 1063.4888888888888Q6147.8 1030.2833333333333 6147.8 988.0Q6147.8 932.3388888888888 6168.105555555556 892.325Q6188.4111111111115 852.3111111111111 6224.483333333334 830.6916666666666Q6260.555555555556 809.0722222222222 6307.616666666667 809.0722222222222Q6368.294444444445 809.0722222222222 6404.486111111111 837.2611111111112Q6440.677777777778 865.45 6453.8166666666675 915.1388888888889L6403.172222222222 924.2166666666667Q6392.6611111111115 893.4 6369.25 875.0055555555555Q6345.838888888889 856.6111111111111 6310.483333333334 856.3722222222223Q6273.933333333333 856.1333333333333 6249.686111111112 872.6166666666666Q6225.43888888889 889.0999999999999 6213.255555555556 918.8416666666666Q6201.072222222223 948.5833333333333 6200.833333333334 988.0Q6200.594444444445 1027.4166666666667 6212.777777777778 1056.9194444444445Q6224.961111111112 1086.4222222222222 6249.447222222223 1102.9055555555556Q6273.933333333333 1119.388888888889 6310.483333333334 1119.6277777777777Q6339.866666666667 1120.1055555555556 6361.008333333333 1108.7583333333332Q6382.150000000001 1097.411111111111 6394.572222222223 1075.4333333333334Q6406.9944444444445 1053.4555555555555 6410.5777777777785 1021.4444444444445H6343.68888888889V981.3111111111111H6463.611111111111Q6464.088888888889 985.6111111111111 6464.3277777777785 992.6583333333333Q6464.5666666666675 999.7055555555555 6464.5666666666675 1001.6166666666667Q6464.5666666666675 1049.3944444444444 6446.172222222223 1086.9Q6427.777777777778 1124.4055555555556 6392.6611111111115 1145.786111111111Q6357.544444444445 1167.1666666666667 6307.616666666667 1167.1666666666667Z"/></svg>
